<svg width="40" height="40" viewBox="0 0 40 40" fill="none" xmlns="http://www.w3.org/2000/svg">
<path d="M30.1792 17.2104C29.0413 18.3456 28.4726 19.9246 28.6279 21.5178L28.6012 21.4913C28.7608 23.3661 28.0788 25.2154 26.7371 26.5458C25.3954 27.8762 23.5305 28.5525 21.6397 28.3942L21.6664 28.4207C19.3772 28.2094 17.2001 29.4442 16.2232 31.5079C15.2462 33.5717 15.6791 36.0213 17.3056 37.6326C18.9321 39.2439 21.4028 39.671 23.4832 38.7004C25.5636 37.7298 26.8068 35.5699 26.5917 33.3001L26.6199 33.3266C26.4603 31.4518 27.1423 29.6025 28.484 28.2721C29.8257 26.9417 31.6906 26.2654 33.5814 26.4236L33.5532 26.3972C36.0691 26.6215 38.4102 25.1004 39.2072 22.7234C40.0041 20.3464 39.0474 17.7382 36.8967 16.4242C34.7461 15.1102 31.9664 15.4358 30.1837 17.2104H30.1792Z" fill="#5454D4"/>
<path d="M19.2387 24.9531L19.2105 24.9266C20.8182 25.0872 22.4137 24.5235 23.5567 23.391C24.6997 22.2584 25.2694 20.6768 25.1086 19.0825L25.1368 19.109C24.9772 17.2341 25.6592 15.3849 27.0009 14.0544C28.3426 12.724 30.2076 12.0478 32.0983 12.206L32.0701 12.1795C34.3596 12.3927 36.538 11.1593 37.5164 9.09588C38.4949 7.03242 38.0632 4.58213 36.4372 2.9698C34.8112 1.35747 32.3401 0.929441 30.2592 1.89966C28.1782 2.86988 26.9343 5.02995 27.1493 7.30013L27.1226 7.27219C27.2828 9.14716 26.6009 10.9967 25.2591 12.3273C23.9173 13.6578 22.052 14.3339 20.1612 14.1751L20.1878 14.2031C18.5801 14.0424 16.9847 14.6062 15.8416 15.7387C14.6986 16.8713 14.1289 18.4529 14.2897 20.0472L14.263 20.0207C14.4221 21.8954 13.7399 23.7444 12.3983 25.0747C11.0567 26.405 9.19212 27.0814 7.30151 26.9237L7.32821 26.9501C5.03877 26.7369 2.86038 27.9703 1.88193 30.0338C0.903478 32.0973 1.33514 34.5476 2.96114 36.1599C4.58715 37.7722 7.05823 38.2002 9.13919 37.23C11.2202 36.2598 12.464 34.0997 12.249 31.8295L12.2772 31.856C12.1176 29.9812 12.7996 28.1319 14.1413 26.8015C15.483 25.4711 17.348 24.7948 19.2387 24.9531V24.9531Z" fill="#FF7143"/>
<path d="M9.2992 22.0016C10.4373 20.8665 11.0055 19.2873 10.849 17.6942L10.8772 17.7207C10.7175 15.8453 11.3998 13.9955 12.7422 12.665C14.0846 11.3344 15.9504 10.6586 17.8416 10.8178L17.8135 10.7913C20.1021 11.0039 22.2795 9.7706 23.2573 7.7078C24.2352 5.64499 23.8035 3.19566 22.1781 1.58393C20.5527 -0.0277992 18.0826 -0.455804 16.0023 0.513824C13.922 1.48345 12.6783 3.64248 12.8927 5.91187L12.866 5.8854C13.0256 7.76024 12.3436 9.60949 11.0019 10.9399C9.66015 12.2703 7.79521 12.9466 5.90447 12.7883L5.93117 12.8148C3.41531 12.5911 1.07468 14.1127 0.278255 16.4896C-0.518171 18.8666 0.438799 21.4746 2.58946 22.7882C4.74013 24.1019 7.51957 23.7762 9.30217 22.0016H9.2992Z" fill="#5454D4"/>
</svg>
